<mxfile host="app.diagrams.net" modified="2020-08-26T07:13:19.851Z" agent="5.0 (Windows NT 10.0; WOW64) AppleWebKit/537.36 (KHTML, like Gecko) Chrome/75.0.3770.100 Safari/537.36" etag="kf9UvKiPVGnbU6MisDga" version="13.6.5" type="github">
  <diagram id="7FXV2L9Pq4-2A9v6t6oq" name="Page-1">
    <mxGraphModel dx="1422" dy="760" grid="1" gridSize="10" guides="1" tooltips="1" connect="1" arrows="1" fold="1" page="1" pageScale="1" pageWidth="827" pageHeight="1169" math="0" shadow="0">
      <root>
        <mxCell id="0" />
        <mxCell id="1" parent="0" />
        <mxCell id="n6BBcfOWnJqwnUuZln0g-11" value="" style="edgeStyle=orthogonalEdgeStyle;rounded=0;orthogonalLoop=1;jettySize=auto;html=1;" edge="1" parent="1" source="n6BBcfOWnJqwnUuZln0g-1" target="n6BBcfOWnJqwnUuZln0g-3">
          <mxGeometry relative="1" as="geometry" />
        </mxCell>
        <mxCell id="n6BBcfOWnJqwnUuZln0g-1" value="&lt;font style=&quot;font-size: 14px&quot; face=&quot;Verdana&quot;&gt;&lt;b&gt;Preprocessing&lt;/b&gt;&lt;/font&gt;" style="rounded=0;whiteSpace=wrap;html=1;strokeWidth=2;" vertex="1" parent="1">
          <mxGeometry x="130" y="320" width="120" height="40" as="geometry" />
        </mxCell>
        <mxCell id="n6BBcfOWnJqwnUuZln0g-7" value="" style="edgeStyle=orthogonalEdgeStyle;rounded=0;orthogonalLoop=1;jettySize=auto;html=1;" edge="1" parent="1" source="n6BBcfOWnJqwnUuZln0g-3" target="n6BBcfOWnJqwnUuZln0g-4">
          <mxGeometry relative="1" as="geometry" />
        </mxCell>
        <mxCell id="n6BBcfOWnJqwnUuZln0g-17" value="" style="edgeStyle=orthogonalEdgeStyle;rounded=0;orthogonalLoop=1;jettySize=auto;html=1;" edge="1" parent="1" source="n6BBcfOWnJqwnUuZln0g-3" target="n6BBcfOWnJqwnUuZln0g-14">
          <mxGeometry relative="1" as="geometry" />
        </mxCell>
        <mxCell id="n6BBcfOWnJqwnUuZln0g-3" value="&lt;font face=&quot;Verdana&quot; style=&quot;font-size: 14px&quot;&gt;&lt;b&gt;Decoder&lt;/b&gt;&lt;/font&gt;" style="rounded=0;whiteSpace=wrap;html=1;strokeWidth=2;" vertex="1" parent="1">
          <mxGeometry x="360" y="320" width="120" height="40" as="geometry" />
        </mxCell>
        <mxCell id="n6BBcfOWnJqwnUuZln0g-4" value="&lt;font style=&quot;font-size: 14px&quot; face=&quot;Verdana&quot;&gt;&lt;b&gt;Acoustic Model&lt;/b&gt;&lt;/font&gt;" style="rounded=0;whiteSpace=wrap;html=1;strokeWidth=2;" vertex="1" parent="1">
          <mxGeometry x="355" y="230" width="130" height="40" as="geometry" />
        </mxCell>
        <mxCell id="n6BBcfOWnJqwnUuZln0g-9" value="" style="edgeStyle=orthogonalEdgeStyle;rounded=0;orthogonalLoop=1;jettySize=auto;html=1;" edge="1" parent="1" source="n6BBcfOWnJqwnUuZln0g-5" target="n6BBcfOWnJqwnUuZln0g-3">
          <mxGeometry relative="1" as="geometry" />
        </mxCell>
        <mxCell id="n6BBcfOWnJqwnUuZln0g-5" value="&lt;font style=&quot;font-size: 14px&quot; face=&quot;Verdana&quot;&gt;&lt;b&gt;Language Model&lt;/b&gt;&lt;/font&gt;" style="rounded=0;whiteSpace=wrap;html=1;strokeWidth=2;" vertex="1" parent="1">
          <mxGeometry x="270" y="410" width="120" height="50" as="geometry" />
        </mxCell>
        <mxCell id="n6BBcfOWnJqwnUuZln0g-10" value="" style="edgeStyle=orthogonalEdgeStyle;rounded=0;orthogonalLoop=1;jettySize=auto;html=1;" edge="1" parent="1" source="n6BBcfOWnJqwnUuZln0g-6" target="n6BBcfOWnJqwnUuZln0g-3">
          <mxGeometry relative="1" as="geometry" />
        </mxCell>
        <mxCell id="n6BBcfOWnJqwnUuZln0g-6" value="&lt;font style=&quot;font-size: 14px&quot; face=&quot;Verdana&quot;&gt;&lt;b&gt;Lexicon&lt;/b&gt;&lt;/font&gt;" style="rounded=0;whiteSpace=wrap;html=1;strokeWidth=2;" vertex="1" parent="1">
          <mxGeometry x="450" y="410" width="120" height="40" as="geometry" />
        </mxCell>
        <mxCell id="n6BBcfOWnJqwnUuZln0g-13" value="" style="edgeStyle=orthogonalEdgeStyle;rounded=0;orthogonalLoop=1;jettySize=auto;html=1;" edge="1" parent="1" source="n6BBcfOWnJqwnUuZln0g-12" target="n6BBcfOWnJqwnUuZln0g-1">
          <mxGeometry relative="1" as="geometry" />
        </mxCell>
        <mxCell id="n6BBcfOWnJqwnUuZln0g-12" value="&lt;font style=&quot;font-size: 14px&quot; face=&quot;Verdana&quot;&gt;&lt;b&gt;Raw Data&lt;br&gt;(Speech Signal)&lt;/b&gt;&lt;/font&gt;" style="text;html=1;strokeColor=none;fillColor=none;align=center;verticalAlign=middle;whiteSpace=wrap;rounded=0;" vertex="1" parent="1">
          <mxGeometry x="125" y="250" width="130" height="20" as="geometry" />
        </mxCell>
        <mxCell id="n6BBcfOWnJqwnUuZln0g-14" value="&lt;font style=&quot;font-size: 14px&quot; face=&quot;Verdana&quot;&gt;&lt;b&gt;Hypothesized words/phonemes&lt;/b&gt;&lt;/font&gt;" style="text;html=1;strokeColor=none;fillColor=none;align=center;verticalAlign=middle;whiteSpace=wrap;rounded=0;" vertex="1" parent="1">
          <mxGeometry x="530" y="330" width="80" height="20" as="geometry" />
        </mxCell>
        <mxCell id="n6BBcfOWnJqwnUuZln0g-20" value="&lt;font style=&quot;font-size: 14px&quot; face=&quot;Verdana&quot;&gt;&lt;b&gt;Feature vectors&lt;/b&gt;&lt;/font&gt;" style="text;html=1;strokeColor=none;fillColor=none;align=center;verticalAlign=middle;whiteSpace=wrap;rounded=0;" vertex="1" parent="1">
          <mxGeometry x="270" y="310" width="60" height="20" as="geometry" />
        </mxCell>
      </root>
    </mxGraphModel>
  </diagram>
</mxfile>
